
<svg width="14px" height="16px" viewBox="0 0 14 16" version="1.1" xmlns="http://www.w3.org/2000/svg" xmlns:xlink="http://www.w3.org/1999/xlink">
    <!-- Generator: Sketch 50.2 (55047) - http://www.bohemiancoding.com/sketch -->
    <desc>Created with Sketch.</desc>
    <defs></defs>
    <g id="Page-1" stroke="none" stroke-width="1" fill="none" fill-rule="evenodd" fill-opacity="0.428640172">
        <g id="Music" fill="#585858" fill-rule="nonzero">
            <path d="M5,5.8 L5,13.598145 L4.999914,13.598093 C5.007349,14.311236 4.532942,15.115366 3.550427,15.62066 C2.185882,16.322426 0.750973,15.979941 0.225759,15.169611 C-0.299454,14.359281 0.085029,13.081106 1.449573,12.37934 C2.367261,11.907386 3.316775,11.907734 4,12.205054 L4,6 L4,2 L14,0 L14,1 L14,4 L14,12.600464 L13.999937,12.600489 C14.006283,13.313042 13.531839,14.115934 12.550427,14.62066 C11.185882,15.322426 9.750973,14.979941 9.225759,14.169611 C8.700546,13.359281 9.085029,12.081106 10.449573,11.37934 C11.367261,10.907386 12.316775,10.907734 13,11.205054 L13,4.2 L5,5.8 Z" id="Rectangle-233"></path>
        </g>
    </g>
</svg>